<svg width="107" height="110" viewBox="0 0 107 110" fill="none" xmlns="http://www.w3.org/2000/svg">
<path d="M8 1H99C102.866 1 106 4.13401 106 8V102C106 105.866 102.866 109 99 109H8C4.13401 109 1 105.866 1 102V8C1 4.25486 3.94111 1.19633 7.63965 1.00879L8 1Z" fill="white"/>
<path d="M8 1H99C102.866 1 106 4.13401 106 8V102C106 105.866 102.866 109 99 109H8C4.13401 109 1 105.866 1 102V8C1 4.25486 3.94111 1.19633 7.63965 1.00879L8 1Z" stroke="#332626" stroke-width="2"/>
<path d="M36.9965 77.925H41.9653V82.8937H36.9965V77.925Z" fill="#332626"/>
<path d="M46.934 77.925H51.9028V82.8937H46.934V77.925Z" fill="#332626"/>
<path d="M66.809 77.925H81.7153V97.8H66.809V77.925Z" fill="#332626"/>
<path d="M27.059 77.925H32.0278V82.8937H27.059V77.925Z" fill="#332626"/>
<path d="M76.7466 63.0187V52.113L46.9341 62.0505V52.113L12 63.7067V97.8H61.8404V72.9562H86.6841V97.8H96.7745V63.0187H76.7466ZM56.8716 87.8625H22.0904V72.9562H56.8716V87.8625Z" fill="#332626"/>
<path d="M86.6842 33.2062H51.215L51.9794 30.1231C53.7121 23.1668 59.9549 18.3 67.115 18.3H78.0972C79.8553 15.2678 83.1169 13 86.6587 13C92.1371 13 96.7491 17.7904 96.7491 23.2687C96.7491 28.7471 92.1371 33.2062 86.6587 33.2062H86.6842Z" fill="#4D4D4D"/>
<path d="M36.691 33.2063H21.4025L22.1669 30.1231C23.8996 23.1669 30.1424 18.3 37.3025 18.3H52.591L51.8266 21.3832C50.0939 28.3395 43.8511 33.2063 36.691 33.2063Z" fill="#4D4D4D"/>
<path d="M34.4231 60.1649V47.3226H24.4856V63.4774L34.4231 60.1649Z" fill="#4D4D4D"/>
<path d="M64.2356 60.1649V47.3226H54.2981V63.4774L64.2356 60.1649Z" fill="#4D4D4D"/>
</svg>
